<?xml version="1.0" standalone="no"?>
<!DOCTYPE svg PUBLIC "-//W3C//DTD SVG 20010904//EN"
 "http://www.w3.org/TR/2001/REC-SVG-20010904/DTD/svg10.dtd">
<svg version="1.0" xmlns="http://www.w3.org/2000/svg"
 width="512.000000pt" height="512.000000pt" viewBox="0 0 512.000000 512.000000"
 preserveAspectRatio="xMidYMid meet">

<g transform="translate(0.000000,512.000000) scale(0.100000,-0.100000)"
fill="#000000" stroke="none">
<path d="M1765 4407 c-59 -24 -90 -46 -107 -75 -10 -16 -15 -32 -11 -36 3 -3
1 -6 -6 -6 -7 0 -10 -4 -6 -9 3 -5 1 -12 -5 -16 -14 -8 -13 -101 2 -128 19
-37 82 -92 132 -117 26 -12 52 -32 56 -44 10 -22 33 -109 31 -114 -1 -1 5 -17
13 -36 8 -19 13 -36 11 -38 -3 -2 2 -28 10 -58 20 -74 19 -89 -7 -99 -13 -5
-41 -17 -63 -26 -22 -10 -46 -19 -53 -21 -19 -4 -220 -119 -256 -147 -30 -23
-211 -202 -233 -230 -7 -9 -13 -20 -13 -26 0 -5 -7 -11 -15 -14 -19 -8 -110
-197 -130 -272 -25 -91 -30 -309 -11 -433 31 -202 137 -459 275 -663 131 -195
363 -431 572 -580 53 -38 101 -69 107 -69 6 0 12 -4 14 -9 3 -11 208 -141 221
-141 5 0 21 -9 37 -20 15 -11 30 -17 34 -13 3 3 6 1 6 -5 0 -10 88 -49 103
-44 4 1 7 -3 7 -9 0 -6 7 -9 15 -5 8 3 15 2 15 -3 0 -5 11 -11 25 -13 16 -4
25 0 28 11 4 15 5 15 6 0 1 -12 8 -15 26 -11 14 2 25 8 25 13 0 5 7 6 15 3 8
-4 15 -1 15 5 0 6 3 10 8 9 14 -5 102 34 102 44 0 6 3 8 6 5 4 -4 19 2 34 13
16 11 32 20 37 20 13 0 218 130 221 141 2 5 8 9 14 9 6 0 54 31 107 69 209
149 441 385 572 580 138 204 244 461 275 663 19 124 14 342 -11 433 -20 75
-111 264 -130 272 -8 3 -15 9 -15 14 0 6 -6 17 -12 26 -23 28 -204 207 -234
230 -37 29 -238 144 -256 147 -7 1 -24 8 -38 16 -14 7 -27 13 -30 13 -3 0 -20
6 -37 14 -37 15 -39 25 -18 103 8 30 13 56 10 58 -2 2 3 18 10 35 7 18 13 34
13 37 0 10 23 96 32 116 4 12 30 32 56 44 50 25 113 80 132 117 15 27 16 120
2 128 -6 4 -8 11 -5 16 4 5 2 9 -3 9 -5 0 -9 6 -9 13 0 54 -97 112 -188 112
-79 0 -129 -25 -166 -83 -56 -89 -45 -188 28 -253 l37 -32 -12 -66 c-6 -36
-26 -116 -44 -176 l-33 -110 -40 0 c-22 0 -45 4 -52 8 -6 5 -17 7 -25 6 -7 -1
-29 1 -48 4 -67 13 -132 20 -297 32 -56 4 -73 3 -73 -7 0 -10 -2 -11 -8 0 -8
12 -30 12 -207 -4 -70 -6 -116 -12 -165 -21 -19 -3 -41 -5 -48 -4 -8 1 -19 -1
-25 -6 -7 -4 -30 -8 -52 -8 l-40 0 -33 110 c-18 60 -38 140 -44 176 l-12 66
37 32 c47 42 72 106 63 164 -9 62 -55 129 -102 152 -48 23 -129 29 -169 12z
m37 -1277 c82 -25 177 -86 250 -161 72 -74 156 -239 195 -384 24 -91 26 -116
26 -270 -1 -221 -15 -322 -55 -402 -41 -84 -69 -108 -122 -108 -134 0 -478
274 -629 501 -127 191 -164 299 -154 454 7 115 37 190 101 259 117 124 236
158 388 111z m1790 -14 c81 -41 169 -135 197 -211 28 -73 38 -207 22 -290 -25
-135 -160 -354 -308 -501 -176 -175 -379 -309 -469 -309 -53 0 -81 24 -122
108 -40 80 -54 181 -55 402 0 154 2 179 26 270 39 145 123 310 195 384 163
166 363 223 514 147z"/>
<path d="M1792 2593 c-39 -5 -112 -72 -112 -102 0 -11 -4 -23 -10 -26 -5 -3
-10 -19 -10 -35 0 -16 5 -32 10 -35 6 -3 10 -14 10 -23 0 -9 20 -35 46 -59 43
-41 48 -43 105 -43 61 0 88 10 123 46 35 34 46 62 46 114 0 28 -6 60 -12 72
-21 37 -80 88 -102 88 -12 0 -30 2 -41 4 -11 2 -35 1 -53 -1z m36 -55 c17 -17
15 -76 -2 -94 -8 -8 -29 -14 -46 -14 -17 0 -38 6 -46 14 -17 18 -19 92 -1 99
24 10 83 7 95 -5z"/>
<path d="M3254 2593 c-32 -4 -89 -50 -111 -91 -7 -12 -13 -44 -13 -72 0 -52
11 -80 46 -114 35 -36 62 -46 123 -46 57 0 62 2 105 43 26 24 46 50 46 59 0 9
5 20 10 23 12 8 13 49 1 73 -5 9 -15 30 -22 46 -28 58 -100 89 -185 79z m140
-49 c21 -8 22 -80 2 -100 -8 -8 -29 -14 -46 -14 -17 0 -38 6 -46 14 -17 18
-19 77 -2 94 13 13 66 16 92 6z"/>
</g>
</svg>
